<?xml version="1.0" encoding="UTF-8" standalone="no"?>
<svg width="8px" height="16px" viewBox="0 0 8 16" version="1.1" xmlns="http://www.w3.org/2000/svg" xmlns:xlink="http://www.w3.org/1999/xlink">
    <!-- Generator: Sketch 49 (51002) - http://www.bohemiancoding.com/sketch -->
    <title>sort icon</title>
    <desc>Created with Sketch.</desc>
    <defs></defs>
    <g id="Page-1" stroke="none" stroke-width="1" fill="none" fill-rule="evenodd">
        <g id="Elements" transform="translate(-448.000000, -10309.000000)" fill="#999999">
            <g id="Sample:-Feature" transform="translate(150.000000, 10084.000000)">
                <g id="sort-icon" transform="translate(298.000000, 225.000000)">
                    <rect id="Rectangle-13" x="3" y="0" width="2" height="16" rx="1"></rect>
                    <path d="M4.00784458,0.765014598 L4.54212904,0.150390625 L7.56096737,2.77462674 C7.97778196,3.13695814 8.02194931,3.76858076 7.65961792,4.18539535 C7.29728652,4.60220994 6.6656639,4.6463773 6.24884931,4.2840459 L4.00784458,2.33597021 L1.76683985,4.2840459 C1.35002525,4.6463773 0.718402633,4.60220994 0.356071236,4.18539535 C-0.00626016068,3.76858076 0.0379071955,3.13695814 0.454721787,2.77462674 L3.47356011,0.150390625 L4.00784458,0.765014598 Z" id="Combined-Shape"></path>
                    <path d="M4.00784458,12.114624 L4.54212904,11.5 L7.56096737,14.1242361 C7.97778196,14.4865675 8.02194931,15.1181901 7.65961792,15.5350047 C7.29728652,15.9518193 6.6656639,15.9959867 6.24884931,15.6336553 L4.00784458,13.6855796 L1.76683985,15.6336553 C1.35002525,15.9959867 0.718402633,15.9518193 0.356071236,15.5350047 C-0.00626016068,15.1181901 0.0379071955,14.4865675 0.454721787,14.1242361 L3.47356011,11.5 L4.00784458,12.114624 Z" id="Combined-Shape" transform="translate(4.007845, 13.689480) scale(1, -1) translate(-4.007845, -13.689480) "></path>
                </g>
            </g>
        </g>
    </g>
</svg>